# ProBuilder 4.1.0
# https://unity3d.com/unity/features/worldbuilding/probuilder
# 13.08.2020 2:24:19

mtllib ./HexBody.mtl
o HexBody

g Body
v 1 -0.125 0
v 1 0.025 0
v 0.5 -0.125 0.8660254
v 0.5 0.025 0.8660254
v -0.5 -0.125 0.8660254
v -0.5 0.025 0.8660254
v -1 -0.125 -8.742278E-08
v -1 0.025 -8.742278E-08
v -0.4999999 -0.125 -0.8660254
v -0.4999999 0.025 -0.8660254
v 0.4999999 -0.125 -0.8660254
v 0.4999999 0.025 -0.8660254
v 0 -0.125 0
v 0.9 0.125 0
v 0 0.125 0
v 0.45 0.125 0.7794229
v -0.45 0.125 0.7794229
v -0.9 0.125 -7.86805E-08
v -0.4499999 0.125 -0.7794229
v 0.4499999 0.125 -0.7794229

vt -0.5 -0.125
vt -0.5 0.025
vt 0.5000001 -0.125
vt 0.5000001 0.025
vt 0.4999999 -0.125
vt 0.4999999 0.025
vt -0.4999999 -0.125
vt -0.4999999 0.025
vt -1 0
vt 0 0
vt -0.5 0.8660254
vt 0.9 0
vt 0.45 0.7794229
vt 0.5 0.8660254
vt -0.45 0.7794229
vt 1 -8.742278E-08
vt -0.9 -7.86805E-08
vt 0.4999999 -0.8660254
vt -0.4499999 -0.7794229
vt -0.4999999 -0.8660254
vt 0.4499999 -0.7794229
vt -0.4999999 -0.5480486
vt 0.4999999 -0.5480486
vt -0.4499999 -0.415761
vt 0.4499999 -0.415761
vt 0.3358756 -0.6614717
vt 0.6894291 0.2739428
vt 0.2298096 -0.5679302
vt 0.5480077 0.2739428
vt 0.6894292 -0.2739427
vt 0.3358757 0.6614717
vt 0.5480078 -0.2739427
vt 0.2298097 0.5679302
vt -0.5000001 -0.5480486
vt -0.45 -0.415761
vt -0.3358757 0.6614715
vt -0.6894291 -0.2739429
vt -0.2298097 0.5679302
vt -0.5480077 -0.2739429
vt -0.6894292 0.2739427
vt -0.3358757 -0.6614717
vt -0.5480078 0.2739427
vt -0.2298097 -0.5679302

vn 0.8660254 0 0.5
vn -5.960464E-08 0 1
vn -0.8660254 0 0.5
vn -0.8660253 0 -0.5000001
vn 0 0 -1
vn 0.8660254 0 -0.5000001
vn 0 -1 0
vn 0 1 0
vn 0 0.6546538 -0.7559288
vn 0.6546537 0.6546537 -0.3779645
vn 0.6546536 0.6546537 0.3779644
vn -4.505687E-08 0.6546538 0.7559289
vn -0.6546537 0.6546537 0.3779645
vn -0.6546536 0.6546538 -0.3779645

usemtl Blue_0
f 3/11/7 13/10/7 1/9/7
f 5/14/7 13/10/7 3/11/7
f 7/16/7 13/10/7 5/14/7
f 9/18/7 13/10/7 7/16/7
f 11/20/7 13/10/7 9/18/7
f 1/9/7 13/10/7 11/20/7
f 14/12/8 15/10/8 16/13/8
f 16/13/8 15/10/8 17/15/8
f 17/15/8 15/10/8 18/17/8
f 18/17/8 15/10/8 19/19/8
f 19/19/8 15/10/8 20/21/8
f 20/21/8 15/10/8 14/12/8
f 1/1/1 2/2/1 4/4/1
f 4/4/1 3/3/1 1/1/1
f 3/1/2 4/2/2 6/6/2
f 6/6/2 5/5/2 3/1/2
f 5/1/3 6/2/3 8/4/3
f 8/4/3 7/3/3 5/1/3
f 7/1/4 8/2/4 10/4/4
f 10/4/4 9/3/4 7/1/4
f 9/7/5 10/8/5 12/6/5
f 12/6/5 11/5/5 9/7/5
f 11/1/6 12/2/6 2/4/6
f 2/4/6 1/3/6 11/1/6
f 12/23/9 10/22/9 19/24/9
f 19/24/9 20/25/9 12/23/9
f 2/27/10 12/26/10 20/28/10
f 20/28/10 14/29/10 2/27/10
f 4/31/11 2/30/11 14/32/11
f 14/32/11 16/33/11 4/31/11
f 6/23/12 4/34/12 16/35/12
f 16/35/12 17/25/12 6/23/12
f 8/37/13 6/36/13 17/38/13
f 17/38/13 18/39/13 8/37/13
f 10/41/14 8/40/14 18/42/14
f 18/42/14 19/43/14 10/41/14

